<mxfile host="Electron" modified="2023-12-22T10:50:53.388Z" agent="Mozilla/5.0 (Macintosh; Intel Mac OS X 10_15_7) AppleWebKit/537.36 (KHTML, like Gecko) draw.io/22.1.11 Chrome/114.0.5735.289 Electron/25.9.8 Safari/537.36" etag="iDClD-KU5NCXAj7egeUg" version="22.1.11" type="device">
  <diagram name="Page-1" id="J1ulzrVN8QK7nklARanK">
    <mxGraphModel dx="1249" dy="949" grid="1" gridSize="10" guides="1" tooltips="1" connect="1" arrows="1" fold="1" page="1" pageScale="1" pageWidth="827" pageHeight="1169" math="0" shadow="0">
      <root>
        <mxCell id="0" />
        <mxCell id="1" parent="0" />
        <mxCell id="mPcV5KLfGnNKVoKbEEDN-49" value="&lt;font style=&quot;font-size: 18px;&quot;&gt;Azure ML Workspace&lt;/font&gt;" style="rounded=1;whiteSpace=wrap;html=1;fillStyle=hatch;verticalAlign=top;labelPosition=center;verticalLabelPosition=bottom;align=center;fontSize=15;" vertex="1" parent="1">
          <mxGeometry x="360" width="840" height="840" as="geometry" />
        </mxCell>
        <mxCell id="mPcV5KLfGnNKVoKbEEDN-97" style="edgeStyle=orthogonalEdgeStyle;rounded=0;orthogonalLoop=1;jettySize=auto;html=1;dashed=1;fontSize=15;" edge="1" parent="1" source="mPcV5KLfGnNKVoKbEEDN-33" target="mPcV5KLfGnNKVoKbEEDN-11">
          <mxGeometry relative="1" as="geometry" />
        </mxCell>
        <mxCell id="mPcV5KLfGnNKVoKbEEDN-98" value="&lt;font style=&quot;font-size: 15px;&quot;&gt;Uses&lt;/font&gt;" style="edgeLabel;html=1;align=center;verticalAlign=middle;resizable=0;points=[];fontSize=15;" vertex="1" connectable="0" parent="mPcV5KLfGnNKVoKbEEDN-97">
          <mxGeometry x="-0.1267" y="3" relative="1" as="geometry">
            <mxPoint as="offset" />
          </mxGeometry>
        </mxCell>
        <mxCell id="mPcV5KLfGnNKVoKbEEDN-33" value="Deployment Runtime" style="rounded=1;whiteSpace=wrap;html=1;fillStyle=hatch;fontSize=18;verticalAlign=top;labelPosition=center;verticalLabelPosition=bottom;align=center;" vertex="1" parent="1">
          <mxGeometry x="745" y="550" width="420" height="220" as="geometry" />
        </mxCell>
        <mxCell id="mPcV5KLfGnNKVoKbEEDN-99" style="edgeStyle=orthogonalEdgeStyle;rounded=0;orthogonalLoop=1;jettySize=auto;html=1;entryX=0;entryY=0.25;entryDx=0;entryDy=0;dashed=1;" edge="1" parent="1" source="mPcV5KLfGnNKVoKbEEDN-2" target="mPcV5KLfGnNKVoKbEEDN-33">
          <mxGeometry relative="1" as="geometry" />
        </mxCell>
        <mxCell id="mPcV5KLfGnNKVoKbEEDN-100" value="Exposes" style="edgeLabel;html=1;align=center;verticalAlign=middle;resizable=0;points=[];fontSize=15;" vertex="1" connectable="0" parent="mPcV5KLfGnNKVoKbEEDN-99">
          <mxGeometry x="-0.2325" y="1" relative="1" as="geometry">
            <mxPoint as="offset" />
          </mxGeometry>
        </mxCell>
        <mxCell id="mPcV5KLfGnNKVoKbEEDN-2" value="Deployment Endpoint" style="sketch=0;outlineConnect=0;fontColor=#232F3E;gradientColor=none;fillColor=#8C4FFF;strokeColor=none;dashed=0;verticalLabelPosition=bottom;verticalAlign=top;align=center;html=1;fontSize=15;fontStyle=0;aspect=fixed;pointerEvents=1;shape=mxgraph.aws4.endpoint;" vertex="1" parent="1">
          <mxGeometry x="530.0000000000001" y="570" width="78" height="78" as="geometry" />
        </mxCell>
        <mxCell id="mPcV5KLfGnNKVoKbEEDN-11" value="Model&lt;br&gt;" style="sketch=0;outlineConnect=0;fontColor=#232F3E;gradientColor=none;fillColor=#01A88D;strokeColor=none;dashed=0;verticalLabelPosition=bottom;verticalAlign=top;align=center;html=1;fontSize=15;fontStyle=0;aspect=fixed;pointerEvents=1;shape=mxgraph.aws4.sagemaker_model;" vertex="1" parent="1">
          <mxGeometry x="920" y="370" width="70" height="70" as="geometry" />
        </mxCell>
        <mxCell id="mPcV5KLfGnNKVoKbEEDN-72" style="edgeStyle=orthogonalEdgeStyle;rounded=0;orthogonalLoop=1;jettySize=auto;html=1;fontSize=15;" edge="1" parent="1" source="mPcV5KLfGnNKVoKbEEDN-89" target="mPcV5KLfGnNKVoKbEEDN-11">
          <mxGeometry relative="1" as="geometry">
            <mxPoint x="489" y="280" as="sourcePoint" />
            <Array as="points">
              <mxPoint x="489" y="401" />
              <mxPoint x="950" y="401" />
            </Array>
          </mxGeometry>
        </mxCell>
        <mxCell id="mPcV5KLfGnNKVoKbEEDN-73" value="3. Create model using flow (If Accuracy &amp;gt;%60)" style="edgeLabel;html=1;align=center;verticalAlign=middle;resizable=0;points=[];fontSize=15;" vertex="1" connectable="0" parent="mPcV5KLfGnNKVoKbEEDN-72">
          <mxGeometry x="0.4206" y="-3" relative="1" as="geometry">
            <mxPoint x="-67" y="16" as="offset" />
          </mxGeometry>
        </mxCell>
        <mxCell id="mPcV5KLfGnNKVoKbEEDN-78" style="edgeStyle=orthogonalEdgeStyle;rounded=0;orthogonalLoop=1;jettySize=auto;html=1;entryX=0;entryY=0.75;entryDx=0;entryDy=0;fontSize=15;" edge="1" parent="1" source="mPcV5KLfGnNKVoKbEEDN-89" target="mPcV5KLfGnNKVoKbEEDN-33">
          <mxGeometry relative="1" as="geometry">
            <mxPoint x="439" y="280" as="sourcePoint" />
            <Array as="points">
              <mxPoint x="439" y="370" />
              <mxPoint x="440" y="665" />
            </Array>
          </mxGeometry>
        </mxCell>
        <mxCell id="mPcV5KLfGnNKVoKbEEDN-79" value="5. Create Deployment" style="edgeLabel;html=1;align=center;verticalAlign=middle;resizable=0;points=[];fontSize=15;" vertex="1" connectable="0" parent="mPcV5KLfGnNKVoKbEEDN-78">
          <mxGeometry x="0.6103" y="-1" relative="1" as="geometry">
            <mxPoint as="offset" />
          </mxGeometry>
        </mxCell>
        <mxCell id="mPcV5KLfGnNKVoKbEEDN-50" value="&lt;font style=&quot;font-size: 18px;&quot;&gt;Test Runtime&lt;/font&gt;" style="rounded=1;whiteSpace=wrap;html=1;fillStyle=hatch;fontSize=15;verticalAlign=top;labelPosition=center;verticalLabelPosition=bottom;align=center;" vertex="1" parent="1">
          <mxGeometry x="770" y="110" width="329.8" height="190" as="geometry" />
        </mxCell>
        <mxCell id="mPcV5KLfGnNKVoKbEEDN-18" value="Test VM" style="image;aspect=fixed;html=1;points=[];align=center;fontSize=15;image=img/lib/azure2/compute/Virtual_Machine.svg;" vertex="1" parent="1">
          <mxGeometry x="810" y="170" width="86.25" height="80" as="geometry" />
        </mxCell>
        <mxCell id="mPcV5KLfGnNKVoKbEEDN-56" style="edgeStyle=orthogonalEdgeStyle;rounded=0;orthogonalLoop=1;jettySize=auto;html=1;exitX=0;exitY=0.5;exitDx=0;exitDy=0;entryX=0;entryY=0.5;entryDx=0;entryDy=0;fontSize=15;" edge="1" parent="1" source="mPcV5KLfGnNKVoKbEEDN-50" target="mPcV5KLfGnNKVoKbEEDN-50">
          <mxGeometry relative="1" as="geometry" />
        </mxCell>
        <mxCell id="mPcV5KLfGnNKVoKbEEDN-25" value="Test VM Environment" style="sketch=0;outlineConnect=0;fontColor=#232F3E;gradientColor=none;fillColor=#DD344C;strokeColor=none;dashed=0;verticalLabelPosition=bottom;verticalAlign=top;align=center;html=1;fontSize=15;fontStyle=0;aspect=fixed;pointerEvents=1;shape=mxgraph.aws4.development_environment;" vertex="1" parent="1">
          <mxGeometry x="980" y="175" width="76.9" height="70" as="geometry" />
        </mxCell>
        <mxCell id="mPcV5KLfGnNKVoKbEEDN-32" value="Deployment VM" style="image;aspect=fixed;html=1;points=[];align=center;fontSize=15;image=img/lib/azure2/compute/Virtual_Machine.svg;" vertex="1" parent="1">
          <mxGeometry x="790" y="570" width="75.47" height="70" as="geometry" />
        </mxCell>
        <mxCell id="mPcV5KLfGnNKVoKbEEDN-59" style="edgeStyle=orthogonalEdgeStyle;rounded=0;orthogonalLoop=1;jettySize=auto;html=1;fontSize=15;entryX=-0.003;entryY=0.446;entryDx=0;entryDy=0;entryPerimeter=0;" edge="1" parent="1">
          <mxGeometry relative="1" as="geometry">
            <mxPoint x="510.99" y="235.25999999999976" as="sourcePoint" />
            <mxPoint x="770.0006000000001" y="230" as="targetPoint" />
            <Array as="points">
              <mxPoint x="640.99" y="235.26" />
              <mxPoint x="640.99" y="230.26" />
            </Array>
          </mxGeometry>
        </mxCell>
        <mxCell id="mPcV5KLfGnNKVoKbEEDN-61" value="1. Run Flow Evaluation" style="edgeLabel;html=1;align=center;verticalAlign=middle;resizable=0;points=[];fontSize=15;" vertex="1" connectable="0" parent="mPcV5KLfGnNKVoKbEEDN-59">
          <mxGeometry x="-0.0286" y="2" relative="1" as="geometry">
            <mxPoint y="-23" as="offset" />
          </mxGeometry>
        </mxCell>
        <mxCell id="mPcV5KLfGnNKVoKbEEDN-62" style="edgeStyle=orthogonalEdgeStyle;rounded=0;orthogonalLoop=1;jettySize=auto;html=1;exitX=0;exitY=0.75;exitDx=0;exitDy=0;fontSize=15;" edge="1" parent="1" source="mPcV5KLfGnNKVoKbEEDN-50">
          <mxGeometry relative="1" as="geometry">
            <mxPoint x="511" y="261" as="targetPoint" />
          </mxGeometry>
        </mxCell>
        <mxCell id="mPcV5KLfGnNKVoKbEEDN-63" value="2. Get Evaluation Results" style="edgeLabel;html=1;align=center;verticalAlign=middle;resizable=0;points=[];fontSize=15;" vertex="1" connectable="0" parent="mPcV5KLfGnNKVoKbEEDN-62">
          <mxGeometry x="0.0316" relative="1" as="geometry">
            <mxPoint as="offset" />
          </mxGeometry>
        </mxCell>
        <mxCell id="mPcV5KLfGnNKVoKbEEDN-74" style="edgeStyle=orthogonalEdgeStyle;rounded=0;orthogonalLoop=1;jettySize=auto;html=1;fontSize=15;" edge="1" parent="1" source="mPcV5KLfGnNKVoKbEEDN-89" target="mPcV5KLfGnNKVoKbEEDN-2">
          <mxGeometry relative="1" as="geometry">
            <mxPoint x="464" y="280" as="sourcePoint" />
            <mxPoint x="780" y="550" as="targetPoint" />
            <Array as="points">
              <mxPoint x="464" y="546" />
            </Array>
          </mxGeometry>
        </mxCell>
        <mxCell id="mPcV5KLfGnNKVoKbEEDN-75" value="4. Create Endpoint" style="edgeLabel;html=1;align=center;verticalAlign=middle;resizable=0;points=[];fontSize=15;" vertex="1" connectable="0" parent="mPcV5KLfGnNKVoKbEEDN-74">
          <mxGeometry x="-0.1791" relative="1" as="geometry">
            <mxPoint x="66" y="83" as="offset" />
          </mxGeometry>
        </mxCell>
        <mxCell id="mPcV5KLfGnNKVoKbEEDN-89" value="&lt;font style=&quot;font-size: 15px;&quot;&gt;Github Pipeline&lt;/font&gt;" style="dashed=0;outlineConnect=0;html=1;align=center;labelPosition=center;verticalLabelPosition=top;verticalAlign=bottom;shape=mxgraph.weblogos.github" vertex="1" parent="1">
          <mxGeometry x="380" y="130" width="130" height="140" as="geometry" />
        </mxCell>
        <mxCell id="mPcV5KLfGnNKVoKbEEDN-92" value="Deployment VM Environment" style="sketch=0;outlineConnect=0;fontColor=#232F3E;gradientColor=none;fillColor=#DD344C;strokeColor=none;dashed=0;verticalLabelPosition=bottom;verticalAlign=top;align=center;html=1;fontSize=15;fontStyle=0;aspect=fixed;pointerEvents=1;shape=mxgraph.aws4.development_environment;" vertex="1" parent="1">
          <mxGeometry x="1010" y="560" width="76.9" height="70" as="geometry" />
        </mxCell>
        <mxCell id="mPcV5KLfGnNKVoKbEEDN-101" value="" style="endArrow=classic;html=1;rounded=0;entryX=-0.014;entryY=0.157;entryDx=0;entryDy=0;entryPerimeter=0;" edge="1" parent="1" source="mPcV5KLfGnNKVoKbEEDN-89" target="mPcV5KLfGnNKVoKbEEDN-50">
          <mxGeometry width="50" height="50" relative="1" as="geometry">
            <mxPoint x="750" y="310" as="sourcePoint" />
            <mxPoint x="800" y="260" as="targetPoint" />
            <Array as="points">
              <mxPoint x="560" y="110" />
              <mxPoint x="660" y="110" />
            </Array>
          </mxGeometry>
        </mxCell>
        <mxCell id="mPcV5KLfGnNKVoKbEEDN-102" value="1. Create Test Runtime" style="edgeLabel;html=1;align=center;verticalAlign=middle;resizable=0;points=[];fontSize=15;" vertex="1" connectable="0" parent="mPcV5KLfGnNKVoKbEEDN-101">
          <mxGeometry x="0.0438" y="1" relative="1" as="geometry">
            <mxPoint x="-9" y="-19" as="offset" />
          </mxGeometry>
        </mxCell>
        <mxCell id="mPcV5KLfGnNKVoKbEEDN-103" value="" style="endArrow=classic;html=1;rounded=0;entryX=0;entryY=0.25;entryDx=0;entryDy=0;" edge="1" parent="1" source="mPcV5KLfGnNKVoKbEEDN-89" target="mPcV5KLfGnNKVoKbEEDN-50">
          <mxGeometry width="50" height="50" relative="1" as="geometry">
            <mxPoint x="750" y="410" as="sourcePoint" />
            <mxPoint x="800" y="360" as="targetPoint" />
            <Array as="points">
              <mxPoint x="570" y="158" />
            </Array>
          </mxGeometry>
        </mxCell>
        <mxCell id="mPcV5KLfGnNKVoKbEEDN-104" value="6. Delete Test Runtime" style="edgeLabel;html=1;align=center;verticalAlign=middle;resizable=0;points=[];fontSize=15;" vertex="1" connectable="0" parent="mPcV5KLfGnNKVoKbEEDN-103">
          <mxGeometry x="0.0032" y="-1" relative="1" as="geometry">
            <mxPoint as="offset" />
          </mxGeometry>
        </mxCell>
      </root>
    </mxGraphModel>
  </diagram>
</mxfile>
